# xmcd
#
# Track frame offsets: 
#        150
#        18553
#        40039
#        56124
#        76632
#        98026
#        119373
#        141036
#        162278
#        185670
#        205985
#        220218
#        238842
#        257132
#        277015
#        296236
#
# Disc length: 4406 seconds
#
# Revision: 1
# Processed by: cddbd v1.5.2PL0 Copyright (c) Steve Scherf et al.
# Submitted via: ExactAudioCopy v0.99pb3
#
DISCID=f1113410
DTITLE=Various Artist - Forro Do Mucao
DYEAR=2000
DGENRE=Forro
TTITLE0=Mastruz Com Leite/O Bem E O Mal
TTITLE1=Capital Do Sol/Menina De 15 Anos
TTITLE2=Frank Aguiar/Pout Pourri | Ficando Solteiro, Mulher Dismantela
TTITLE2=da
TTITLE3=Cavalo De Pau/Quero Teu Amor, Vaqueiro
TTITLE4=Brasas Do Forro/Um Belo Cinquentao
TTITLE5=Meu Tudo/Forro Siriguella
TTITLE6=Rita De Cassa E Redondo/Motel De Rico
TTITLE7=Rabo De Saia/Bebo Porque Gosto
TTITLE8=Familia Plokes/100% Forro
TTITLE9=Klenio Robson/Pout Pourri | Lagrimas De Amor, Chega De Sofrer,
TTITLE9=Viajar No Teu Ceu
TTITLE10=Mel Com Terra/Meu Cariri
TTITLE11=Flor De Cheiro/Um Segundo Sem Voce
TTITLE12=Catuaba Com Amendoim/Mulheres X Homens
TTITLE13=Calango Aceso/Forro Do Pente
TTITLE14=Cachorra Da Mulesta E Luiz Fidelis/Corto E Dou Pro Gato
TTITLE15=Banda Aquarius/Amor Canibal
EXTD=
EXTT0=
EXTT1=
EXTT2=
EXTT3=
EXTT4=
EXTT5=
EXTT6=
EXTT7=
EXTT8=
EXTT9=
EXTT10=
EXTT11=
EXTT12=
EXTT13=
EXTT14=
EXTT15=
PLAYORDER=
